<svg width="22" height="22" viewBox="0 0 22 22" fill="none" xmlns="http://www.w3.org/2000/svg">
<path fill-rule="evenodd" clip-rule="evenodd" d="M10.9998 0.916504C5.43109 0.916504 0.916504 5.43109 0.916504 10.9998C0.916504 16.5686 5.43109 21.0832 10.9998 21.0832C16.5686 21.0832 21.0832 16.5686 21.0832 10.9998C21.0832 5.43109 16.5686 0.916504 10.9998 0.916504ZM11.9165 14.6665C11.9165 14.9096 11.8199 15.1428 11.648 15.3147C11.4761 15.4866 11.243 15.5832 10.9998 15.5832C10.7567 15.5832 10.5236 15.4866 10.3517 15.3147C10.1797 15.1428 10.0832 14.9096 10.0832 14.6665V11.9165H7.33317C7.09006 11.9165 6.8569 11.8199 6.68499 11.648C6.51308 11.4761 6.4165 11.243 6.4165 10.9998C6.4165 10.7567 6.51308 10.5236 6.68499 10.3517C6.8569 10.1797 7.09006 10.0832 7.33317 10.0832H10.0832V7.33317C10.0832 7.09006 10.1797 6.8569 10.3517 6.68499C10.5236 6.51308 10.7567 6.4165 10.9998 6.4165C11.243 6.4165 11.4761 6.51308 11.648 6.68499C11.8199 6.8569 11.9165 7.09006 11.9165 7.33317V10.0832H14.6665C14.9096 10.0832 15.1428 10.1797 15.3147 10.3517C15.4866 10.5236 15.5832 10.7567 15.5832 10.9998C15.5832 11.243 15.4866 11.4761 15.3147 11.648C15.1428 11.8199 14.9096 11.9165 14.6665 11.9165H11.9165V14.6665Z" fill="#0094FF"/>
</svg>
