<svg width="156" height="23" viewBox="0 0 156 23" fill="none" xmlns="http://www.w3.org/2000/svg">
<path d="M12.1488 22.3706C10.44 22.3706 8.85479 22.0926 7.39306 21.5368C5.95192 20.9809 4.69608 20.1986 3.62552 19.1898C2.57555 18.181 1.75204 16.9972 1.155 15.6384C0.578543 14.2796 0.290316 12.7973 0.290316 11.1915C0.290316 9.58564 0.578543 8.10332 1.155 6.74454C1.75204 5.38575 2.58584 4.20196 3.6564 3.19317C4.72696 2.18437 5.98281 1.40204 7.42394 0.84617C8.86508 0.290304 10.4297 0.0123714 12.1179 0.0123714C13.8267 0.0123714 15.3914 0.290304 16.8119 0.84617C18.2531 1.40204 19.4986 2.18437 20.5486 3.19317C21.6191 4.20196 22.4529 5.38575 23.05 6.74454C23.647 8.08274 23.9455 9.56505 23.9455 11.1915C23.9455 12.7973 23.647 14.2899 23.05 15.6693C22.4529 17.0281 21.6191 18.2119 20.5486 19.2207C19.4986 20.2089 18.2531 20.9809 16.8119 21.5368C15.3914 22.0926 13.837 22.3706 12.1488 22.3706ZM12.1179 18.1089C13.0856 18.1089 13.9708 17.9442 14.7737 17.6148C15.5972 17.2854 16.3178 16.8119 16.9354 16.1943C17.5531 15.5766 18.0266 14.8458 18.356 14.0017C18.706 13.1576 18.881 12.2209 18.881 11.1915C18.881 10.1621 18.706 9.22535 18.356 8.38126C18.0266 7.53716 17.5531 6.8063 16.9354 6.18867C16.3384 5.57104 15.6281 5.09752 14.8046 4.76812C13.9811 4.43872 13.0856 4.27402 12.1179 4.27402C11.1503 4.27402 10.2547 4.43872 9.43124 4.76812C8.62832 5.09752 7.91805 5.57104 7.30042 6.18867C6.68279 6.8063 6.19898 7.53716 5.84899 8.38126C5.51958 9.22535 5.35488 10.1621 5.35488 11.1915C5.35488 12.2003 5.51958 13.137 5.84899 14.0017C6.19898 14.8458 6.67249 15.5766 7.26954 16.1943C7.88717 16.8119 8.60773 17.2854 9.43124 17.6148C10.2547 17.9442 11.1503 18.1089 12.1179 18.1089ZM27.7054 22V0.382948H31.8435L44.5976 15.9472H42.5903V0.382948H47.5313V22H43.4241L30.6391 6.43572H32.6464V22H27.7054Z" fill="#FEC400"/>
<path d="M61.3915 22V0.382948H65.5297L74.7323 15.6384H72.5398L81.588 0.382948H85.6953L85.757 22H81.0631L81.0322 7.57834H81.8969L74.6706 19.7148H72.4162L65.0356 7.57834H66.0855V22H61.3915ZM95.4871 9.09153H105.894V12.9826H95.4871V9.09153ZM95.8577 17.9854H107.624V22H90.8858V0.382948H107.222V4.39754H95.8577V17.9854ZM111.604 22V0.382948H115.742L128.496 15.9472H126.489V0.382948H131.43V22H127.323L114.538 6.43572H116.545V22H111.604ZM146.149 22.3706C143.081 22.3706 140.683 21.5162 138.953 19.8074C137.224 18.0986 136.359 15.659 136.359 12.4885V0.382948H141.362V12.3032C141.362 14.362 141.784 15.8443 142.628 16.7501C143.472 17.656 144.656 18.1089 146.18 18.1089C147.703 18.1089 148.887 17.656 149.731 16.7501C150.575 15.8443 150.997 14.362 150.997 12.3032V0.382948H155.938V12.4885C155.938 15.659 155.073 18.0986 153.344 19.8074C151.615 21.5162 149.216 22.3706 146.149 22.3706Z" fill="#165E86"/>
</svg>
