<svg width="137" height="103" viewBox="0 0 137 103" fill="none" xmlns="http://www.w3.org/2000/svg">
<path d="M68.201 87.1167C87.8351 87.1167 103.752 71.1704 103.752 51.4996C103.752 31.8289 87.8351 15.8826 68.201 15.8826C48.5669 15.8826 32.6503 31.8289 32.6503 51.4996C32.6503 71.1704 48.5669 87.1167 68.201 87.1167Z" fill="white"/>
<path d="M68.2029 87.2874C61.138 87.2874 54.2316 85.1885 48.3573 81.2561C42.483 77.3237 37.9045 71.7344 35.2009 65.195C32.4972 58.6556 31.7898 51.4599 33.1681 44.5177C34.5464 37.5755 37.9486 31.1987 42.9443 26.1937C47.9399 21.1887 54.3049 17.7802 61.2341 16.3993C68.1633 15.0185 75.3456 15.7272 81.8728 18.4359C88.4 21.1446 93.9789 25.7316 97.904 31.6169C101.829 37.5022 103.924 44.4214 103.924 51.4996C103.913 60.9878 100.146 70.0842 93.4497 76.7934C86.753 83.5026 77.6735 87.2766 68.2029 87.2874ZM68.2029 16.0533C61.2054 16.0533 54.365 18.1322 48.5468 22.0271C42.7285 25.922 38.1938 31.4579 35.5159 37.9349C32.8381 44.4118 32.1375 51.5389 33.5026 58.4148C34.8678 65.2907 38.2374 71.6066 43.1854 76.5638C48.1334 81.5211 54.4375 84.897 61.3006 86.2647C68.1637 87.6324 75.2775 86.9304 81.7423 84.2476C88.2072 81.5648 93.7328 77.0215 97.6205 71.1924C101.508 65.3633 103.583 58.5102 103.583 51.4996C103.573 42.1017 99.8424 33.0916 93.2095 26.4463C86.5766 19.801 77.5833 16.0633 68.2029 16.0533Z" fill="#D1D3D4"/>
<path d="M97.4224 79.1527C97.4224 79.1527 93.7258 70.4099 92.7539 66.9934C92.1586 64.6614 91.9126 62.2538 92.0241 59.8494L89.3983 46.4328C89.3983 46.4328 70.929 36.9247 65.4728 33.621C60.0166 30.3172 53.418 25.1924 51.4913 26.3301C49.5645 27.4678 49.8987 29.9755 52.1733 32.4798C53.1077 33.5048 54.3728 34.581 55.1469 35.7084C55.7778 36.6241 56.569 39.511 55.8085 40.536C54.9014 41.7625 52.4836 37.9497 51.2219 39.1694C50.5569 39.8048 50.4103 42.0631 51.7504 44.0208C52.4771 44.9334 53.2928 45.7711 54.1853 46.5217C56.0267 48.1172 56.4189 49.3505 57.8784 51.274C59.3789 53.2522 58.2399 50.3037 58.1206 52.5825C57.9773 55.3499 57.592 58.6537 58.3729 61.363C59.6244 65.6917 66.9596 71.0453 70.1413 73.7785C73.3229 76.5117 71.7202 85.8559 71.7202 85.8559L97.4224 79.1527Z" fill="white"/>
<path d="M71.7133 86.0063C71.6886 86.0056 71.6642 85.9996 71.642 85.9888C71.6197 85.978 71.6 85.9625 71.5842 85.9434C71.5684 85.9243 71.5568 85.9021 71.5503 85.8781C71.5437 85.8542 71.5423 85.8292 71.5462 85.8047C71.5633 85.7124 73.0978 76.5289 70.0253 73.8879C69.5036 73.4404 68.8556 72.9108 68.1668 72.3505C64.6237 69.4465 59.2629 65.0597 58.2024 61.3903C57.5203 59.074 57.7113 56.31 57.8614 53.874C57.892 53.4231 57.9193 52.9823 57.9398 52.5553C57.9448 52.2895 57.9884 52.026 58.0694 51.7729C57.9739 51.6636 57.8614 51.5269 57.7284 51.3595C57.2339 50.7035 56.869 50.1432 56.5143 49.5966C55.8568 48.4848 55.0282 47.4839 54.0591 46.631C53.8783 46.4705 52.2585 45.056 51.5969 44.096C50.192 42.0461 50.3591 39.7263 51.0922 39.0259C51.8254 38.3255 52.8928 39.084 53.8203 39.7673C54.1781 40.0597 54.567 40.3117 54.9798 40.5189C55.3924 40.6932 55.5595 40.5702 55.6618 40.4267C56.3438 39.4974 55.6277 36.7164 54.9798 35.7973C54.4101 35.0355 53.7745 34.3255 53.0803 33.6757C52.7018 33.2999 52.3472 32.9445 52.0198 32.5858C50.5603 30.98 49.868 29.3675 50.0658 28.0521C50.1269 27.6592 50.277 27.2856 50.5045 26.9599C50.7321 26.6342 51.0312 26.365 51.3787 26.173C52.9167 25.2677 56.8042 27.8129 61.3056 30.7614C62.714 31.6838 64.1667 32.637 65.5376 33.4638C70.9256 36.7266 89.2789 46.1767 89.4631 46.2689C89.4861 46.2806 89.506 46.2975 89.5214 46.3183C89.5368 46.339 89.5472 46.363 89.5517 46.3885L92.1775 59.8051C92.1791 59.8198 92.1791 59.8347 92.1775 59.8495C92.0692 62.2342 92.3128 64.6219 92.9005 66.9353C93.8519 70.304 97.5178 78.9888 97.5553 79.0742C97.5655 79.0967 97.5708 79.1212 97.5708 79.1459C97.5708 79.1707 97.5655 79.1951 97.5553 79.2177C97.5434 79.2393 97.5274 79.2582 97.508 79.2735C97.4887 79.2887 97.4665 79.3 97.4428 79.3065L71.7577 86.0063H71.7133ZM58.349 52.0428C58.3124 52.2171 58.2907 52.3943 58.2842 52.5723C58.2638 53.0028 58.2331 53.4436 58.2058 53.8945C58.0523 56.3032 57.8648 59.0364 58.5297 61.2947C59.5528 64.8615 64.8692 69.2073 68.385 72.084C69.0671 72.6477 69.7218 73.1807 70.247 73.6283C73.2036 76.1701 72.1635 84.0383 71.9248 85.586L97.187 79.0366C96.6516 77.7622 93.4768 70.1537 92.597 67.0378C91.6728 63.7716 91.8434 60.1809 91.8604 59.8632L89.2551 46.5388C87.9728 45.8794 70.6084 36.9248 65.3841 33.7611C64.0201 32.9309 62.5537 31.9742 61.1419 31.0518C57.1043 28.4074 52.9303 25.6742 51.5935 26.4703C51.2877 26.6341 51.0244 26.8675 50.8249 27.1517C50.6253 27.4359 50.495 27.763 50.4443 28.1068C50.2636 29.3025 50.9456 30.84 52.3131 32.3603C52.6336 32.702 52.9951 33.0641 53.36 33.4365C54.0702 34.1001 54.7196 34.8261 55.3003 35.606C55.9312 36.5216 56.7974 39.5008 55.9585 40.6351C55.7096 40.9767 55.3447 41.0382 54.8673 40.8367C54.4304 40.6195 54.0187 40.3548 53.6396 40.0474C52.7837 39.412 51.9004 38.756 51.3548 39.2753C50.8092 39.7946 50.5807 41.9744 51.9073 43.9047C52.6202 44.8044 53.4198 45.6318 54.2944 46.3748C55.2894 47.2487 56.14 48.275 56.8144 49.4155C57.1555 49.9553 57.5272 50.5122 58.0148 51.1545C58.1273 51.3014 58.2194 51.4176 58.2979 51.4962C58.3263 51.4846 58.3561 51.4766 58.3865 51.4722C58.4839 51.4734 58.578 51.5079 58.653 51.5701C58.7281 51.6322 58.7797 51.7183 58.7991 51.8139C58.8244 51.8692 58.8283 51.932 58.81 51.9901C58.7917 52.0481 58.7526 52.0974 58.7002 52.1282C58.6082 52.1829 58.5059 52.1829 58.349 52.053V52.0428Z" fill="#231F20"/>
<path d="M55.4342 68.4692H79.3086C80.271 68.4692 81.0511 67.6876 81.0511 66.7234V15.5784C81.0511 14.6142 80.271 13.8325 79.3086 13.8325H55.4342C54.4718 13.8325 53.6916 14.6142 53.6916 15.5784L53.6916 66.7234C53.6916 67.6876 54.4718 68.4692 55.4342 68.4692Z" fill="white"/>
<path d="M79.3073 68.6402H55.4363C54.9286 68.6393 54.4421 68.4366 54.0834 68.0767C53.7247 67.7167 53.5233 67.2288 53.5233 66.7202V15.5785C53.5233 15.0699 53.7247 14.582 54.0834 14.222C54.4421 13.862 54.9286 13.6594 55.4363 13.6584H79.3073C79.8156 13.6584 80.303 13.8607 80.6625 14.2208C81.0219 14.5809 81.2238 15.0693 81.2238 15.5785V66.7202C81.2238 67.2294 81.0219 67.7178 80.6625 68.0779C80.303 68.4379 79.8156 68.6402 79.3073 68.6402ZM55.4363 14.0001C55.0221 14.0055 54.6266 14.1742 54.3355 14.4696C54.0445 14.765 53.8813 15.1634 53.8813 15.5785V66.7202C53.8813 67.1382 54.0468 67.5392 54.3416 67.8351C54.6363 68.131 55.0361 68.2977 55.4534 68.2986H79.3243C79.7422 68.2986 80.1429 68.1323 80.4384 67.8363C80.7338 67.5403 80.8998 67.1388 80.8998 66.7202V15.5785C80.8998 15.1599 80.7338 14.7584 80.4384 14.4624C80.1429 14.1664 79.7422 14.0001 79.3243 14.0001H55.4363Z" fill="#231F20"/>
<path d="M55.0766 60.8235H79.5614V18.7732H55.0766V60.8235Z" fill="#68E1FD"/>
<path d="M69.4161 66.9733H64.7579C64.4284 66.9724 64.1126 66.8406 63.88 66.6068C63.6473 66.373 63.5166 66.0564 63.5166 65.7262V63.9428C63.5166 63.6127 63.6473 63.296 63.88 63.0622C64.1126 62.8285 64.4284 62.6967 64.7579 62.6958H69.4161C69.7457 62.6967 70.0614 62.8285 70.2941 63.0622C70.5268 63.296 70.6574 63.6127 70.6574 63.9428V65.7262C70.6574 66.0564 70.5268 66.373 70.2941 66.6068C70.0614 66.8406 69.7457 66.9724 69.4161 66.9733ZM64.7579 63.0375C64.5188 63.0384 64.2898 63.1341 64.1211 63.3038C63.9524 63.4735 63.8576 63.7033 63.8576 63.9428V65.7262C63.8576 65.9658 63.9524 66.1955 64.1211 66.3652C64.2898 66.5349 64.5188 66.6307 64.7579 66.6316H69.4161C69.6552 66.6307 69.8842 66.5349 70.0529 66.3652C70.2217 66.1955 70.3164 65.9658 70.3164 65.7262V63.9428C70.3164 63.7033 70.2217 63.4735 70.0529 63.3038C69.8842 63.1341 69.6552 63.0384 69.4161 63.0375H64.7579Z" fill="#D1D3D4"/>
<path d="M72.298 16.4532H65.3345C65.2893 16.4532 65.2459 16.4352 65.2139 16.4032C65.182 16.3712 65.164 16.3277 65.164 16.2824C65.164 16.2371 65.182 16.1936 65.2139 16.1616C65.2459 16.1296 65.2893 16.1116 65.3345 16.1116H72.298C72.3432 16.1116 72.3866 16.1296 72.4186 16.1616C72.4506 16.1936 72.4685 16.2371 72.4685 16.2824C72.4685 16.3277 72.4506 16.3712 72.4186 16.4032C72.3866 16.4352 72.3432 16.4532 72.298 16.4532Z" fill="#D1D3D4"/>
<path d="M64.3557 16.3675H63.4316C63.3863 16.3675 63.343 16.3495 63.311 16.3175C63.279 16.2855 63.261 16.242 63.261 16.1967C63.261 16.1514 63.279 16.1079 63.311 16.0759C63.343 16.0439 63.3863 16.0259 63.4316 16.0259H64.3659C64.4112 16.0259 64.4545 16.0439 64.4865 16.0759C64.5185 16.1079 64.5364 16.1514 64.5364 16.1967C64.5365 16.22 64.5318 16.2431 64.5226 16.2645C64.5134 16.286 64.4999 16.3053 64.4829 16.3213C64.466 16.3373 64.446 16.3496 64.4241 16.3576C64.4022 16.3655 64.3789 16.3689 64.3557 16.3675Z" fill="#D1D3D4"/>
<path d="M58.6298 41.5917C58.6482 42.0732 58.521 42.5491 58.2648 42.9569C58.0086 43.3648 57.6354 43.6856 57.1941 43.8773C56.1019 44.3638 54.8682 44.4259 53.7328 44.0515C53.0833 43.8419 52.4801 43.509 51.9562 43.071C51.0559 42.3091 50.5307 41.2876 50.6467 40.3378C50.8376 38.7901 52.8496 37.8233 54.9162 38.0556C56.8463 38.2708 58.5173 40.2251 58.6298 41.5917Z" fill="white"/>
<path d="M55.2859 44.4513C54.7412 44.4509 54.1997 44.368 53.6798 44.2053C53.0082 43.9849 52.3853 43.637 51.8451 43.1804C50.8664 42.3536 50.3549 41.2774 50.4811 40.3003C50.6822 38.7082 52.6806 37.6183 54.9415 37.8712C56.9296 38.0966 58.6927 40.0714 58.8052 41.5576C58.8283 42.0729 58.6946 42.5831 58.4218 43.0205C58.1489 43.458 57.7499 43.8021 57.2775 44.0072C56.6565 44.3066 55.975 44.4586 55.2859 44.4513ZM54.3004 38.1752C52.5033 38.1752 50.9687 39.0908 50.8152 40.3413C50.7061 41.1988 51.1767 42.1623 52.0668 42.9139C52.5675 43.3394 53.1468 43.6621 53.7718 43.8637C54.8648 44.2291 56.0549 44.1706 57.1069 43.6997C57.5179 43.5238 57.866 43.2272 58.1053 42.8491C58.3446 42.4709 58.4637 42.0289 58.4471 41.5815C58.3448 40.372 56.8069 38.4246 54.8835 38.2094C54.69 38.1866 54.4953 38.1752 54.3004 38.1752Z" fill="#231F20"/>
<path d="M58.2745 48.483C58.4703 48.7608 58.6003 49.0796 58.6546 49.4153C58.709 49.751 58.6863 50.0946 58.5882 50.4202C58.4331 50.8047 58.1888 51.1467 57.8755 51.4178C57.0571 52.1933 55.9352 52.7434 54.8064 52.576C54.1217 52.4363 53.4779 52.1418 52.924 51.715C51.9385 51.0317 50.9905 50.1708 50.6631 49.0194C50.1891 47.3521 51.3963 44.9196 53.3503 45.1553C54.9667 45.3501 57.4186 47.154 58.2745 48.483Z" fill="white"/>
<path d="M55.2259 52.7774C55.0809 52.7781 54.936 52.7666 54.7928 52.7433C54.088 52.5945 53.4266 52.2859 52.8593 51.8413C51.5566 50.9462 50.8132 50.0579 50.5302 49.0534C50.3971 48.4974 50.396 47.9179 50.5269 47.3614C50.6578 46.8048 50.917 46.2868 51.2838 45.8488C51.5326 45.5334 51.8579 45.2872 52.2286 45.1335C52.5993 44.9798 53.0031 44.9238 53.4015 44.9707C55.0657 45.1791 57.5585 47.0206 58.4349 48.3872C58.6477 48.6857 58.7891 49.0292 58.8483 49.3911C58.9074 49.7531 58.8826 50.1238 58.7759 50.4747C58.6118 50.8834 58.3535 51.2475 58.0223 51.5372C57.2829 52.2939 56.2821 52.7378 55.2259 52.7774ZM53.098 45.3089C52.795 45.3135 52.4968 45.3854 52.2249 45.5196C51.953 45.6537 51.7143 45.8466 51.5259 46.0845C51.195 46.4788 50.9609 46.9454 50.8425 47.4468C50.7241 47.9481 50.7245 48.4703 50.8439 48.9714C51.1065 49.8973 51.8056 50.7241 53.04 51.5748C53.5723 51.9853 54.1901 52.2702 54.8474 52.4084C55.8023 52.5485 56.8662 52.1419 57.7631 51.2912C58.0614 51.0406 58.2953 50.7219 58.4451 50.3619C58.5356 50.0612 58.5559 49.7437 58.5044 49.4339C58.453 49.1241 58.3312 48.8303 58.1484 48.5751C57.33 47.3042 54.9088 45.5173 53.3742 45.3226C53.2826 45.3116 53.1903 45.307 53.098 45.3089Z" fill="#231F20"/>
<path d="M57.3077 53.8435C57.687 54.1068 58.0047 54.4495 58.2387 54.8479C58.468 55.3116 58.5613 55.831 58.5075 56.3457C58.4538 56.8604 58.2553 57.3492 57.9352 57.7554C57.6067 58.1536 57.2024 58.4824 56.7456 58.7223C56.2889 58.9622 55.7891 59.1085 55.2753 59.1527C54.6695 59.2263 54.055 59.1709 53.4721 58.9902C52.8891 58.8094 52.3508 58.5074 51.8924 58.1038C51.4411 57.6921 51.1046 57.1696 50.9163 56.5878C50.7279 56.0061 50.6941 55.3852 50.8183 54.7864C51.5651 51.6501 55.3571 52.4222 57.3077 53.8435Z" fill="white"/>
<path d="M54.7761 59.3576C53.6718 59.3691 52.6025 58.9698 51.7752 58.237C51.3005 57.8056 50.9468 57.2573 50.7494 56.6465C50.552 56.0357 50.5177 55.3838 50.6498 54.7555C50.7378 54.2837 50.9456 53.8425 51.2532 53.4745C51.5608 53.1065 51.9579 52.824 52.4061 52.6544C53.9509 52.0838 56.089 52.7535 57.4053 53.7135C57.8065 53.9898 58.1419 54.3515 58.3874 54.7726C58.6299 55.266 58.7285 55.8179 58.6718 56.3649C58.6151 56.9118 58.4054 57.4317 58.0669 57.8646C57.726 58.283 57.3046 58.6283 56.8277 58.8802C56.3508 59.132 55.8282 59.285 55.291 59.3302C55.1205 59.3576 54.9466 59.3576 54.7761 59.3576ZM53.6883 52.7808C53.2925 52.7765 52.899 52.8412 52.5254 52.9721C52.1286 53.1212 51.7775 53.3714 51.5066 53.6979C51.2357 54.0244 51.0544 54.416 50.9806 54.8341C50.8617 55.403 50.8936 55.9931 51.0731 56.5457C51.2526 57.0984 51.5734 57.5943 52.0037 57.9841C52.4432 58.3694 52.959 58.6575 53.5172 58.8294C54.0755 59.0013 54.6636 59.0532 55.2433 58.9817C55.7347 58.9414 56.2131 58.8027 56.6501 58.5738C57.087 58.3449 57.4737 58.0306 57.7873 57.6493C58.0897 57.2684 58.2776 56.809 58.3289 56.3249C58.3803 55.8409 58.2929 55.3522 58.0771 54.9161C57.8572 54.5394 57.5567 54.2162 57.1973 53.9697C56.1713 53.2324 54.9502 52.8163 53.6883 52.774V52.7808Z" fill="#231F20"/>
<path d="M95.6126 71.7287L93.0959 66.3887L68.9863 74.7557L70.5515 80.5808L95.6126 71.7287Z" fill="#68E1FD"/>
<path d="M68.7742 78.319L95.3733 69.6616L102.957 83.7069L73.3677 92.7094L68.7742 78.319Z" fill="#231F20"/>
<path d="M73.3677 92.8768C73.3317 92.8772 73.2964 92.8663 73.267 92.8454C73.2376 92.8245 73.2155 92.7948 73.204 92.7606L68.614 78.3703C68.6071 78.3492 68.6045 78.327 68.6063 78.3049C68.608 78.2828 68.6142 78.2613 68.6243 78.2415C68.6345 78.2218 68.6484 78.2043 68.6654 78.1901C68.6824 78.1758 68.702 78.1651 68.7231 78.1585L95.3221 69.5011C95.3595 69.4875 95.4005 69.488 95.4375 69.5024C95.4745 69.5169 95.505 69.5443 95.5233 69.5797L103.107 83.6146C103.12 83.6368 103.127 83.6615 103.128 83.6869C103.129 83.7122 103.125 83.7375 103.115 83.7609C103.105 83.7842 103.09 83.805 103.071 83.8217C103.052 83.8384 103.03 83.8506 103.005 83.8572L73.4154 92.8597C73.4011 92.8691 73.3847 92.8749 73.3677 92.8768ZM68.9891 78.4284L73.4768 92.4976L102.708 83.6146L95.2915 69.8769L68.9891 78.4284Z" fill="#231F20"/>
<path d="M92.036 60.6627C92.036 60.6627 91.8655 46.0127 90.1604 43.1053C88.4554 40.1978 83.0742 27.9838 81.6351 27.8984C80.196 27.813 78.7092 32.2271 79.988 36.1595C80.7298 38.4767 81.8224 40.666 83.2276 42.6509C83.2276 42.6509 79.5003 45.9 82.3137 56.6756" fill="white"/>
<path d="M92.0316 60.8337C91.987 60.8337 91.9441 60.8162 91.9123 60.7849C91.8804 60.7536 91.862 60.711 91.8611 60.6663C91.8611 60.5194 91.6736 46.0266 90.0094 43.1943C89.4809 42.2958 88.6147 40.5294 87.6223 38.4864C85.7161 34.6121 82.5276 28.1241 81.6239 28.0694C81.4519 28.0867 81.2865 28.1446 81.1413 28.2385C80.996 28.3323 80.8751 28.4594 80.7884 28.6093C79.7415 29.9759 79.1891 33.2318 80.1337 36.1256C80.8719 38.4243 81.9551 40.597 83.346 42.5691C83.3722 42.6036 83.3843 42.6468 83.3799 42.69C83.3755 42.7331 83.3548 42.773 83.3222 42.8014C83.2846 42.8322 79.7142 46.1325 82.4594 56.6519C82.4709 56.6954 82.4648 56.7417 82.4425 56.7807C82.4201 56.8197 82.3833 56.8483 82.34 56.8603C82.3185 56.8665 82.296 56.8683 82.2738 56.8656C82.2516 56.8629 82.2302 56.8558 82.2108 56.8446C82.1914 56.8335 82.1744 56.8185 82.1609 56.8007C82.1474 56.7828 82.1375 56.7625 82.132 56.7407C79.5676 46.9251 82.3605 43.3105 82.9846 42.6545C81.6198 40.6793 80.5491 38.5156 79.8063 36.2315C78.831 33.2318 79.4176 29.8324 80.519 28.4043C80.636 28.2126 80.7983 28.0528 80.9916 27.939C81.185 27.8252 81.4033 27.7608 81.6273 27.7517C82.6504 27.8098 84.8806 32.1932 87.9156 38.3429C88.9182 40.3928 89.7809 42.1386 90.3027 43.0269C92.0078 45.9378 92.1953 60.0684 92.2021 60.6663C92.2026 60.6887 92.1986 60.711 92.1905 60.7319C92.1823 60.7528 92.1701 60.7719 92.1546 60.7881C92.1391 60.8043 92.1206 60.8173 92.1 60.8262C92.0795 60.8352 92.0574 60.8401 92.035 60.8405L92.0316 60.8337Z" fill="#231F20"/>
<path d="M93.8244 80.1779C94.8132 80.1779 95.6147 79.3749 95.6147 78.3842C95.6147 77.3936 94.8132 76.5906 93.8244 76.5906C92.8356 76.5906 92.0341 77.3936 92.0341 78.3842C92.0341 79.3749 92.8356 80.1779 93.8244 80.1779Z" fill="white"/>
<path d="M72.1443 17.5806H40.5323C39.7382 17.5806 38.9767 17.8966 38.4152 18.4592C37.8537 19.0217 37.5382 19.7847 37.5382 20.5803V36.5114C37.5382 37.3073 37.8535 38.0706 38.415 38.6337C38.9764 39.1968 39.7379 39.5136 40.5323 39.5145H67.3394L71.7487 45.1347V39.5145H72.1443C72.9387 39.5136 73.7002 39.1968 74.2616 38.6337C74.823 38.0706 75.1384 37.3073 75.1384 36.5114V20.5803C75.1384 19.7847 74.8229 19.0217 74.2614 18.4592C73.6999 17.8966 72.9383 17.5806 72.1443 17.5806Z" fill="white"/>
<path d="M71.7507 45.3088C71.7246 45.3091 71.6989 45.3031 71.6757 45.2911C71.6526 45.2792 71.6326 45.2619 71.6177 45.2405L67.2561 39.6853H40.5343C39.695 39.6835 38.8906 39.3484 38.2974 38.7534C37.7042 38.1585 37.3706 37.3522 37.3697 36.5113V20.5802C37.3706 19.7396 37.7043 18.9337 38.2976 18.3393C38.8909 17.7449 39.6953 17.4106 40.5343 17.4097H72.1463C72.9853 17.4106 73.7897 17.7449 74.383 18.3393C74.9763 18.9337 75.31 19.7396 75.3109 20.5802V36.5113C75.31 37.3522 74.9764 38.1585 74.3832 38.7534C73.79 39.3484 72.9856 39.6835 72.1463 39.6853H71.9212V45.1517C71.9214 45.1873 71.9103 45.2221 71.8895 45.251C71.8686 45.2799 71.8391 45.3013 71.8052 45.3122C71.787 45.3147 71.7685 45.3136 71.7507 45.3088ZM40.5343 17.7513C39.786 17.7531 39.0688 18.0517 38.5397 18.5819C38.0106 19.112 37.7125 19.8305 37.7107 20.5802V36.5113C37.7116 37.2616 38.0093 37.981 38.5385 38.5119C39.0677 39.0427 39.7854 39.3418 40.5343 39.3436H67.3414C67.367 39.3435 67.3924 39.3493 67.4154 39.3605C67.4385 39.3718 67.4587 39.3882 67.4744 39.4085L71.5665 44.6426V39.5179C71.5665 39.4725 71.5845 39.4291 71.6165 39.3971C71.6484 39.365 71.6918 39.347 71.737 39.347H72.1326C72.8818 39.3461 73.6 39.0473 74.1294 38.5163C74.6588 37.9852 74.9562 37.2653 74.9562 36.5147V20.5802C74.9553 19.8302 74.6575 19.1112 74.1282 18.5809C73.5989 18.0506 72.8812 17.7522 72.1326 17.7513H40.5343Z" fill="#231F20"/>
<path d="M59.7361 23.0676H52.9431C52.2576 23.0676 51.7018 23.6244 51.7018 24.3112V27.7517C51.7018 28.4385 52.2576 28.9953 52.9431 28.9953H59.7361C60.4217 28.9953 60.9774 28.4385 60.9774 27.7517V24.3112C60.9774 23.6244 60.4217 23.0676 59.7361 23.0676Z" fill="#68E1FD"/>
<path d="M58.6531 24.4818H54.0221C53.8412 24.4818 53.6677 24.4098 53.5398 24.2816C53.4119 24.1535 53.3401 23.9797 53.3401 23.7985V21.957C53.3265 21.5539 53.394 21.1521 53.5387 20.7757C53.6833 20.3993 53.902 20.0558 54.1819 19.7658C54.4617 19.4759 54.7969 19.2453 55.1676 19.0878C55.5382 18.9303 55.9367 18.8491 56.3393 18.8491C56.7419 18.8491 57.1404 18.9303 57.511 19.0878C57.8817 19.2453 58.2169 19.4759 58.4967 19.7658C58.7766 20.0558 58.9953 20.3993 59.1399 20.7757C59.2845 21.1521 59.3521 21.5539 59.3385 21.957V23.7985C59.3385 23.8885 59.3208 23.9776 59.2863 24.0608C59.2518 24.1439 59.2012 24.2194 59.1375 24.2829C59.0739 24.3463 58.9983 24.3966 58.9151 24.4307C58.832 24.4649 58.7429 24.4822 58.6531 24.4818ZM54.7007 23.1152H57.971V21.957C57.9811 21.7356 57.9463 21.5144 57.8687 21.3068C57.7911 21.0992 57.6723 20.9096 57.5194 20.7493C57.3666 20.589 57.1829 20.4615 56.9795 20.3743C56.7761 20.2872 56.5571 20.2422 56.3359 20.2422C56.1146 20.2422 55.8957 20.2872 55.6923 20.3743C55.4888 20.4615 55.3052 20.589 55.1523 20.7493C54.9995 20.9096 54.8807 21.0992 54.8031 21.3068C54.7254 21.5144 54.6906 21.7356 54.7007 21.957V23.1152Z" fill="#68E1FD"/>
<path d="M56.3401 25.9956C56.8297 25.9956 57.2267 25.5979 57.2267 25.1073C57.2267 24.6167 56.8297 24.219 56.3401 24.219C55.8504 24.219 55.4534 24.6167 55.4534 25.1073C55.4534 25.5979 55.8504 25.9956 56.3401 25.9956Z" fill="#231F20"/>
<path d="M56.5874 25.2778H56.0895V27.3516H56.5874V25.2778Z" fill="#231F20"/>
<path d="M70.7123 35.9274H41.8319C41.5425 35.9274 41.2649 35.8122 41.0603 35.6072C40.8556 35.4022 40.7407 35.1241 40.7407 34.8341V31.7593C40.7407 31.4693 40.8556 31.1913 41.0603 30.9862C41.2649 30.7812 41.5425 30.666 41.8319 30.666H70.7123C71.0021 30.666 71.28 30.7811 71.4852 30.986C71.6904 31.191 71.8061 31.469 71.807 31.7593V34.8341C71.8061 35.1244 71.6904 35.4025 71.4852 35.6074C71.28 35.8124 71.0021 35.9274 70.7123 35.9274ZM41.8319 31.0008C41.6329 31.0008 41.4421 31.08 41.3014 31.221C41.1607 31.3619 41.0817 31.5531 41.0817 31.7525V34.8273C41.0812 34.9261 41.1003 35.0241 41.1379 35.1155C41.1754 35.2069 41.2306 35.2899 41.3004 35.3598C41.3702 35.4297 41.453 35.485 41.5443 35.5227C41.6355 35.5603 41.7333 35.5794 41.8319 35.5789H70.7123C70.8111 35.5794 70.9091 35.5603 71.0005 35.5227C71.0919 35.4851 71.175 35.4298 71.245 35.36C71.3151 35.2902 71.3706 35.2072 71.4085 35.1157C71.4465 35.0243 71.466 34.9263 71.466 34.8273V31.7525C71.4651 31.5528 71.3853 31.3616 71.244 31.2208C71.1028 31.0799 70.9116 31.0008 70.7123 31.0008H41.8319Z" fill="#D1D3D4"/>
<path d="M43.8381 33.4434L44.2234 33.9524L43.7937 34.2531L43.4084 33.7338L43.0299 34.236L42.6275 33.9354L43.0162 33.4365L42.399 33.2316L42.5661 32.7532L43.1731 32.9651V32.3433H43.6948V32.9651L44.3018 32.7737L44.4621 33.2521L43.8381 33.4434Z" fill="black"/>
<path d="M46.6443 33.4434L47.0296 33.9524L46.6 34.2531L46.2146 33.7338L45.8361 34.236L45.4166 33.9354L45.8054 33.4365L45.1882 33.2316L45.3553 32.7532L45.9623 32.9651V32.3433H46.484V32.9651L47.091 32.7737L47.2513 33.2521L46.6443 33.4434Z" fill="black"/>
<path d="M49.4464 33.4434L49.8318 33.9524L49.4021 34.2531L49.0202 33.7338L48.6416 34.236L48.2222 33.9354L48.6109 33.4365L47.9937 33.2316L48.1608 32.7532L48.7678 32.9651V32.3433H49.2896V32.9651L49.8966 32.7737L50.0568 33.2521L49.4464 33.4434Z" fill="black"/>
<path d="M52.2594 33.4434L52.6448 33.9524L52.2151 34.2531L51.8366 33.7338L51.458 34.236L51.042 33.9354L51.4274 33.4365L50.8101 33.2316L50.9772 32.7532L51.5842 32.9651V32.3433H52.1094V32.9651L52.713 32.7737L52.8767 33.2521L52.2594 33.4434Z" fill="black"/>
<path d="M55.0643 33.4434L55.4497 33.9524L55.02 34.2531L54.6347 33.7338L54.2561 34.236L53.8401 33.9354L54.222 33.4365L53.6048 33.2316L53.7719 32.7532L54.3789 32.9651V32.3433H54.9041V32.9651L55.5076 32.7737L55.6713 33.2521L55.0643 33.4434Z" fill="black"/>
</svg>
