<svg width="94" height="96" viewBox="0 0 94 96" fill="none" xmlns="http://www.w3.org/2000/svg">
<g filter="url(#filter0_d_3579_31991)">
<g filter="url(#filter1_d_3579_31991)">
<circle cx="39.5" cy="39.5" r="23.5" fill="#2196F3"/>
</g>
<path d="M50.3479 44.8939V48.1595C50.3491 48.4627 50.2869 48.7627 50.1652 49.0405C50.0435 49.3183 49.865 49.5676 49.6412 49.7725C49.4174 49.9775 49.1531 50.1335 48.8654 50.2306C48.5776 50.3278 48.2727 50.3638 47.9702 50.3365C44.614 49.9726 41.3901 48.828 38.5576 46.9948C35.9223 45.3235 33.6881 43.0937 32.0135 40.4636C30.1702 37.6239 29.0231 34.3908 28.6651 31.0262C28.6378 30.7251 28.6737 30.4218 28.7704 30.1353C28.867 29.8489 29.0224 29.5857 29.2265 29.3625C29.4307 29.1393 29.6792 28.9609 29.9562 28.8388C30.2333 28.7167 30.5327 28.6535 30.8356 28.6532H34.1076C34.6369 28.648 35.1501 28.8351 35.5514 29.1795C35.9528 29.524 36.2149 30.0023 36.289 30.5254C36.4271 31.5705 36.6832 32.5966 37.0525 33.5842C37.1992 33.9738 37.231 34.3972 37.144 34.8043C37.057 35.2114 36.8549 35.585 36.5616 35.881L35.1765 37.2634C36.7291 39.9886 38.99 42.245 41.7206 43.7945L43.1057 42.4121C43.4023 42.1194 43.7767 41.9177 44.1846 41.8309C44.5924 41.7441 45.0167 41.7758 45.4071 41.9223C46.3966 42.2908 47.4248 42.5464 48.4719 42.6842C49.0017 42.7588 49.4856 43.0252 49.8315 43.4326C50.1774 43.84 50.3612 44.3601 50.3479 44.8939Z" fill="white"/>
</g>
<path d="M15.973 84.579C15.973 85.217 15.753 85.7486 15.313 86.174C14.8803 86.592 14.2167 86.801 13.322 86.801H11.848V90.002H10.847V82.335H13.322C14.1873 82.335 14.8437 82.544 15.291 82.962C15.7457 83.38 15.973 83.919 15.973 84.579ZM13.322 85.976C13.8793 85.976 14.29 85.855 14.554 85.613C14.818 85.371 14.95 85.0263 14.95 84.579C14.95 83.633 14.4073 83.16 13.322 83.16H11.848V85.976H13.322ZM20.2091 83.864C20.6638 83.864 21.0745 83.963 21.4411 84.161C21.8078 84.3516 22.0938 84.6413 22.2991 85.03C22.5118 85.4186 22.6181 85.8916 22.6181 86.449V90.002H21.6281V86.592C21.6281 85.9906 21.4778 85.5323 21.1771 85.217C20.8765 84.8943 20.4658 84.733 19.9451 84.733C19.4171 84.733 18.9955 84.898 18.6801 85.228C18.3721 85.558 18.2181 86.0383 18.2181 86.669V90.002H17.2171V81.862H18.2181V84.832C18.4161 84.524 18.6875 84.2856 19.0321 84.117C19.3841 83.9483 19.7765 83.864 20.2091 83.864ZM26.8823 90.101C26.3176 90.101 25.8043 89.9726 25.3423 89.716C24.8876 89.4593 24.5283 89.0963 24.2643 88.627C24.0076 88.1503 23.8793 87.6003 23.8793 86.977C23.8793 86.361 24.0113 85.8183 24.2753 85.349C24.5466 84.8723 24.9133 84.5093 25.3753 84.26C25.8373 84.0033 26.3543 83.875 26.9263 83.875C27.4983 83.875 28.0153 84.0033 28.4773 84.26C28.9393 84.5093 29.3023 84.8686 29.5663 85.338C29.8376 85.8073 29.9733 86.3536 29.9733 86.977C29.9733 87.6003 29.8339 88.1503 29.5553 88.627C29.2839 89.0963 28.9136 89.4593 28.4443 89.716C27.9749 89.9726 27.4543 90.101 26.8823 90.101ZM26.8823 89.221C27.2416 89.221 27.5789 89.1366 27.8943 88.968C28.2096 88.7993 28.4626 88.5463 28.6533 88.209C28.8513 87.8716 28.9503 87.461 28.9503 86.977C28.9503 86.493 28.8549 86.0823 28.6643 85.745C28.4736 85.4076 28.2243 85.1583 27.9163 84.997C27.6083 84.8283 27.2746 84.744 26.9153 84.744C26.5486 84.744 26.2113 84.8283 25.9033 84.997C25.6026 85.1583 25.3606 85.4076 25.1773 85.745C24.9939 86.0823 24.9023 86.493 24.9023 86.977C24.9023 87.4683 24.9903 87.8826 25.1663 88.22C25.3496 88.5573 25.5916 88.8103 25.8923 88.979C26.1929 89.1403 26.5229 89.221 26.8823 89.221ZM34.2264 83.864C34.9597 83.864 35.5537 84.0876 36.0084 84.535C36.463 84.975 36.6904 85.613 36.6904 86.449V90.002H35.7004V86.592C35.7004 85.9906 35.55 85.5323 35.2494 85.217C34.9487 84.8943 34.538 84.733 34.0174 84.733C33.4894 84.733 33.0677 84.898 32.7524 85.228C32.4444 85.558 32.2904 86.0383 32.2904 86.669V90.002H31.2894V83.974H32.2904V84.832C32.4884 84.524 32.756 84.2856 33.0934 84.117C33.438 83.9483 33.8157 83.864 34.2264 83.864ZM43.8255 86.757C43.8255 86.9476 43.8145 87.1493 43.7925 87.362H38.9745C39.0112 87.956 39.2128 88.4216 39.5795 88.759C39.9535 89.089 40.4045 89.254 40.9325 89.254C41.3652 89.254 41.7245 89.155 42.0105 88.957C42.3038 88.7516 42.5092 88.4803 42.6265 88.143H43.7045C43.5432 88.7223 43.2205 89.1953 42.7365 89.562C42.2525 89.9213 41.6512 90.101 40.9325 90.101C40.3605 90.101 39.8472 89.9726 39.3925 89.716C38.9452 89.4593 38.5932 89.0963 38.3365 88.627C38.0798 88.1503 37.9515 87.6003 37.9515 86.977C37.9515 86.3536 38.0762 85.8073 38.3255 85.338C38.5748 84.8686 38.9232 84.5093 39.3705 84.26C39.8252 84.0033 40.3458 83.875 40.9325 83.875C41.5045 83.875 42.0105 83.9996 42.4505 84.249C42.8905 84.4983 43.2278 84.843 43.4625 85.283C43.7045 85.7156 43.8255 86.207 43.8255 86.757ZM42.7915 86.548C42.7915 86.1666 42.7072 85.8403 42.5385 85.569C42.3698 85.2903 42.1388 85.0813 41.8455 84.942C41.5595 84.7953 41.2405 84.722 40.8885 84.722C40.3825 84.722 39.9498 84.8833 39.5905 85.206C39.2385 85.5286 39.0368 85.976 38.9855 86.548H42.7915ZM47.7054 86.163C47.7054 85.415 47.8741 84.744 48.2114 84.15C48.5488 83.5486 49.0071 83.0793 49.5864 82.742C50.1731 82.4046 50.8221 82.236 51.5334 82.236C52.3694 82.236 53.0991 82.4376 53.7224 82.841C54.3458 83.2443 54.8004 83.8163 55.0864 84.557H53.8874C53.6748 84.095 53.3668 83.7393 52.9634 83.49C52.5674 83.2406 52.0908 83.116 51.5334 83.116C50.9981 83.116 50.5178 83.2406 50.0924 83.49C49.6671 83.7393 49.3334 84.095 49.0914 84.557C48.8494 85.0116 48.7284 85.547 48.7284 86.163C48.7284 86.7716 48.8494 87.307 49.0914 87.769C49.3334 88.2236 49.6671 88.5756 50.0924 88.825C50.5178 89.0743 50.9981 89.199 51.5334 89.199C52.0908 89.199 52.5674 89.078 52.9634 88.836C53.3668 88.5866 53.6748 88.231 53.8874 87.769H55.0864C54.8004 88.5023 54.3458 89.0706 53.7224 89.474C53.0991 89.87 52.3694 90.068 51.5334 90.068C50.8221 90.068 50.1731 89.903 49.5864 89.573C49.0071 89.2356 48.5488 88.77 48.2114 88.176C47.8741 87.582 47.7054 86.911 47.7054 86.163ZM56.2025 86.966C56.2025 86.35 56.3272 85.811 56.5765 85.349C56.8258 84.8796 57.1668 84.5166 57.5995 84.26C58.0395 84.0033 58.5272 83.875 59.0625 83.875C59.5905 83.875 60.0488 83.9886 60.4375 84.216C60.8262 84.4433 61.1158 84.7293 61.3065 85.074V83.974H62.3185V90.002H61.3065V88.88C61.1085 89.232 60.8115 89.5253 60.4155 89.76C60.0268 89.9873 59.5722 90.101 59.0515 90.101C58.5162 90.101 58.0322 89.969 57.5995 89.705C57.1668 89.441 56.8258 89.0706 56.5765 88.594C56.3272 88.1173 56.2025 87.5746 56.2025 86.966ZM61.3065 86.977C61.3065 86.5223 61.2148 86.1263 61.0315 85.789C60.8482 85.4516 60.5988 85.195 60.2835 85.019C59.9755 84.8356 59.6345 84.744 59.2605 84.744C58.8865 84.744 58.5455 84.832 58.2375 85.008C57.9295 85.184 57.6838 85.4406 57.5005 85.778C57.3172 86.1153 57.2255 86.5113 57.2255 86.966C57.2255 87.428 57.3172 87.8313 57.5005 88.176C57.6838 88.5133 57.9295 88.7736 58.2375 88.957C58.5455 89.133 58.8865 89.221 59.2605 89.221C59.6345 89.221 59.9755 89.133 60.2835 88.957C60.5988 88.7736 60.8482 88.5133 61.0315 88.176C61.2148 87.8313 61.3065 87.4316 61.3065 86.977ZM65.0111 81.862V90.002H64.0101V81.862H65.0111ZM67.7181 81.862V90.002H66.7171V81.862H67.7181Z" fill="#3C3C43" fill-opacity="0.6"/>
<defs>
<filter id="filter0_d_3579_31991" x="0" y="0" width="95" height="95" filterUnits="userSpaceOnUse" color-interpolation-filters="sRGB">
<feFlood flood-opacity="0" result="BackgroundImageFix"/>
<feColorMatrix in="SourceAlpha" type="matrix" values="0 0 0 0 0 0 0 0 0 0 0 0 0 0 0 0 0 0 127 0" result="hardAlpha"/>
<feOffset dx="8" dy="8"/>
<feGaussianBlur stdDeviation="12"/>
<feComposite in2="hardAlpha" operator="out"/>
<feColorMatrix type="matrix" values="0 0 0 0 0.395 0 0 0 0 0.640464 0 0 0 0 0.658333 0 0 0 0.25 0"/>
<feBlend mode="normal" in2="BackgroundImageFix" result="effect1_dropShadow_3579_31991"/>
<feBlend mode="normal" in="SourceGraphic" in2="effect1_dropShadow_3579_31991" result="shape"/>
</filter>
<filter id="filter1_d_3579_31991" x="0" y="0" width="95" height="95" filterUnits="userSpaceOnUse" color-interpolation-filters="sRGB">
<feFlood flood-opacity="0" result="BackgroundImageFix"/>
<feColorMatrix in="SourceAlpha" type="matrix" values="0 0 0 0 0 0 0 0 0 0 0 0 0 0 0 0 0 0 127 0" result="hardAlpha"/>
<feOffset dx="8" dy="8"/>
<feGaussianBlur stdDeviation="12"/>
<feComposite in2="hardAlpha" operator="out"/>
<feColorMatrix type="matrix" values="0 0 0 0 0.6375 0 0 0 0 0.6375 0 0 0 0 0.6375 0 0 0 0.25 0"/>
<feBlend mode="normal" in2="BackgroundImageFix" result="effect1_dropShadow_3579_31991"/>
<feBlend mode="normal" in="SourceGraphic" in2="effect1_dropShadow_3579_31991" result="shape"/>
</filter>
</defs>
</svg>
