<svg width="94" height="94" viewBox="0 0 94 94" fill="none" xmlns="http://www.w3.org/2000/svg">
<g filter="url(#filter0_d_3579_31979)">
<ellipse cx="39" cy="38.9776" rx="23" ry="22.9776" fill="#34C759"/>
</g>
<path d="M49.3502 44.1222V47.2353C49.3514 47.5243 49.292 47.8104 49.1759 48.0752C49.0598 48.34 48.8895 48.5777 48.6759 48.7731C48.4623 48.9685 48.2101 49.1172 47.9355 49.2098C47.661 49.3024 47.37 49.3368 47.0813 49.3108C43.8786 48.9638 40.8022 47.8727 38.0993 46.125C35.5846 44.5318 33.4525 42.406 31.8546 39.8987C30.0956 37.1915 29.001 34.1093 28.6593 30.9017C28.6333 30.6148 28.6675 30.3255 28.7598 30.0525C28.852 29.7794 29.0003 29.5285 29.1951 29.3157C29.3899 29.1029 29.6271 28.9329 29.8914 28.8165C30.1558 28.7 30.4415 28.6398 30.7305 28.6395H33.8529C34.358 28.6345 34.8477 28.8129 35.2306 29.1413C35.6136 29.4697 35.8638 29.9257 35.9345 30.4244C36.0662 31.4206 36.3106 32.3989 36.663 33.3404C36.803 33.7118 36.8333 34.1154 36.7503 34.5035C36.6673 34.8916 36.4745 35.2478 36.1947 35.5299L34.8728 36.8478C36.3545 39.4458 38.5119 41.5969 41.1176 43.0741L42.4394 41.7562C42.7224 41.4772 43.0796 41.2849 43.4689 41.2022C43.8581 41.1194 44.2629 41.1496 44.6355 41.2892C45.5797 41.6406 46.5609 41.8842 47.5601 42.0156C48.0657 42.0868 48.5274 42.3407 48.8575 42.7291C49.1875 43.1175 49.3629 43.6133 49.3502 44.1222Z" fill="white"/>
<path d="M16.582 61.9534C16.0069 60.8045 19.4564 53.3368 21.181 50.4646C24.631 51.422 31.9723 60.6177 29.8059 59.6556C24.6321 57.3579 20.0324 62.5278 16.582 61.9534Z" fill="#34C759"/>
<path d="M20.483 81.333L18.261 89H17.139L15.357 82.829L13.509 89L12.398 89.011L10.253 81.333H11.32L12.992 87.834L14.84 81.333H15.962L17.722 87.812L19.405 81.333H20.483ZM24.5704 82.862C25.0251 82.862 25.4358 82.961 25.8024 83.159C26.1691 83.3497 26.4551 83.6393 26.6604 84.028C26.8731 84.4167 26.9794 84.8897 26.9794 85.447V89H25.9894V85.59C25.9894 84.9887 25.8391 84.5303 25.5384 84.215C25.2378 83.8923 24.8271 83.731 24.3064 83.731C23.7784 83.731 23.3568 83.896 23.0414 84.226C22.7334 84.556 22.5794 85.0363 22.5794 85.667V89H21.5784V80.86H22.5794V83.83C22.7774 83.522 23.0488 83.2837 23.3934 83.115C23.7454 82.9463 24.1378 82.862 24.5704 82.862ZM28.2406 85.964C28.2406 85.348 28.3652 84.809 28.6146 84.347C28.8639 83.8777 29.2049 83.5147 29.6376 83.258C30.0776 83.0013 30.5652 82.873 31.1006 82.873C31.6286 82.873 32.0869 82.9867 32.4756 83.214C32.8642 83.4413 33.1539 83.7273 33.3446 84.072V82.972H34.3566V89H33.3446V87.878C33.1466 88.23 32.8496 88.5233 32.4536 88.758C32.0649 88.9853 31.6102 89.099 31.0896 89.099C30.5542 89.099 30.0702 88.967 29.6376 88.703C29.2049 88.439 28.8639 88.0687 28.6146 87.592C28.3652 87.1153 28.2406 86.5727 28.2406 85.964ZM33.3446 85.975C33.3446 85.5203 33.2529 85.1243 33.0696 84.787C32.8862 84.4497 32.6369 84.193 32.3216 84.017C32.0136 83.8337 31.6726 83.742 31.2986 83.742C30.9246 83.742 30.5836 83.83 30.2756 84.006C29.9676 84.182 29.7219 84.4387 29.5386 84.776C29.3552 85.1133 29.2636 85.5093 29.2636 85.964C29.2636 86.426 29.3552 86.8293 29.5386 87.174C29.7219 87.5113 29.9676 87.7717 30.2756 87.955C30.5836 88.131 30.9246 88.219 31.2986 88.219C31.6726 88.219 32.0136 88.131 32.3216 87.955C32.6369 87.7717 32.8862 87.5113 33.0696 87.174C33.2529 86.8293 33.3446 86.4297 33.3446 85.975ZM37.2692 83.797V87.35C37.2692 87.6433 37.3315 87.8523 37.4562 87.977C37.5808 88.0943 37.7972 88.153 38.1052 88.153H38.8422V89H37.9402C37.3828 89 36.9648 88.8717 36.6862 88.615C36.4075 88.3583 36.2682 87.9367 36.2682 87.35V83.797H35.4872V82.972H36.2682V81.454H37.2692V82.972H38.8422V83.797H37.2692ZM42.189 89.099C41.727 89.099 41.3127 89.022 40.946 88.868C40.5793 88.7067 40.2897 88.4867 40.077 88.208C39.8643 87.922 39.747 87.5957 39.725 87.229H40.759C40.7883 87.5297 40.9277 87.7753 41.177 87.966C41.4337 88.1567 41.7673 88.252 42.178 88.252C42.5593 88.252 42.86 88.1677 43.08 87.999C43.3 87.8303 43.41 87.6177 43.41 87.361C43.41 87.097 43.2927 86.9027 43.058 86.778C42.8233 86.646 42.4603 86.5177 41.969 86.393C41.5217 86.2757 41.155 86.1583 40.869 86.041C40.5903 85.9163 40.3483 85.7367 40.143 85.502C39.945 85.26 39.846 84.9447 39.846 84.556C39.846 84.248 39.9377 83.9657 40.121 83.709C40.3043 83.4523 40.5647 83.2507 40.902 83.104C41.2393 82.95 41.6243 82.873 42.057 82.873C42.7243 82.873 43.2633 83.0417 43.674 83.379C44.0847 83.7163 44.3047 84.1783 44.334 84.765H43.333C43.311 84.4497 43.1827 84.1967 42.948 84.006C42.7207 83.8153 42.4127 83.72 42.024 83.72C41.6647 83.72 41.3787 83.797 41.166 83.951C40.9533 84.105 40.847 84.3067 40.847 84.556C40.847 84.754 40.9093 84.919 41.034 85.051C41.166 85.1757 41.3273 85.2783 41.518 85.359C41.716 85.4323 41.9873 85.5167 42.332 85.612C42.7647 85.7293 43.1167 85.8467 43.388 85.964C43.6593 86.074 43.8903 86.2427 44.081 86.47C44.279 86.6973 44.3817 86.9943 44.389 87.361C44.389 87.691 44.2973 87.988 44.114 88.252C43.9307 88.516 43.6703 88.725 43.333 88.879C43.003 89.0257 42.6217 89.099 42.189 89.099ZM45.4281 85.964C45.4281 85.348 45.5527 84.809 45.8021 84.347C46.0514 83.8777 46.3924 83.5147 46.8251 83.258C47.2651 83.0013 47.7527 82.873 48.2881 82.873C48.8161 82.873 49.2744 82.9867 49.6631 83.214C50.0517 83.4413 50.3414 83.7273 50.5321 84.072V82.972H51.5441V89H50.5321V87.878C50.3341 88.23 50.0371 88.5233 49.6411 88.758C49.2524 88.9853 48.7977 89.099 48.2771 89.099C47.7417 89.099 47.2577 88.967 46.8251 88.703C46.3924 88.439 46.0514 88.0687 45.8021 87.592C45.5527 87.1153 45.4281 86.5727 45.4281 85.964ZM50.5321 85.975C50.5321 85.5203 50.4404 85.1243 50.2571 84.787C50.0737 84.4497 49.8244 84.193 49.5091 84.017C49.2011 83.8337 48.8601 83.742 48.4861 83.742C48.1121 83.742 47.7711 83.83 47.4631 84.006C47.1551 84.182 46.9094 84.4387 46.7261 84.776C46.5427 85.1133 46.4511 85.5093 46.4511 85.964C46.4511 86.426 46.5427 86.8293 46.7261 87.174C46.9094 87.5113 47.1551 87.7717 47.4631 87.955C47.7711 88.131 48.1121 88.219 48.4861 88.219C48.8601 88.219 49.2011 88.131 49.5091 87.955C49.8244 87.7717 50.0737 87.5113 50.2571 87.174C50.4404 86.8293 50.5321 86.4297 50.5321 85.975ZM54.2367 84.083C54.4347 83.7383 54.728 83.4523 55.1167 83.225C55.5127 82.9903 55.971 82.873 56.4917 82.873C57.027 82.873 57.511 83.0013 57.9437 83.258C58.3837 83.5147 58.7283 83.8777 58.9777 84.347C59.227 84.809 59.3517 85.348 59.3517 85.964C59.3517 86.5727 59.227 87.1153 58.9777 87.592C58.7283 88.0687 58.3837 88.439 57.9437 88.703C57.511 88.967 57.027 89.099 56.4917 89.099C55.9783 89.099 55.5237 88.9853 55.1277 88.758C54.739 88.5233 54.442 88.2337 54.2367 87.889V91.86H53.2357V82.972H54.2367V84.083ZM58.3287 85.964C58.3287 85.5093 58.237 85.1133 58.0537 84.776C57.8703 84.4387 57.621 84.182 57.3057 84.006C56.9977 83.83 56.6567 83.742 56.2827 83.742C55.916 83.742 55.575 83.8337 55.2597 84.017C54.9517 84.193 54.7023 84.4533 54.5117 84.798C54.3283 85.1353 54.2367 85.5277 54.2367 85.975C54.2367 86.4297 54.3283 86.8293 54.5117 87.174C54.7023 87.5113 54.9517 87.7717 55.2597 87.955C55.575 88.131 55.916 88.219 56.2827 88.219C56.6567 88.219 56.9977 88.131 57.3057 87.955C57.621 87.7717 57.8703 87.5113 58.0537 87.174C58.237 86.8293 58.3287 86.426 58.3287 85.964ZM61.6703 84.083C61.8683 83.7383 62.1616 83.4523 62.5503 83.225C62.9463 82.9903 63.4046 82.873 63.9253 82.873C64.4606 82.873 64.9446 83.0013 65.3773 83.258C65.8173 83.5147 66.1619 83.8777 66.4113 84.347C66.6606 84.809 66.7853 85.348 66.7853 85.964C66.7853 86.5727 66.6606 87.1153 66.4113 87.592C66.1619 88.0687 65.8173 88.439 65.3773 88.703C64.9446 88.967 64.4606 89.099 63.9253 89.099C63.4119 89.099 62.9573 88.9853 62.5613 88.758C62.1726 88.5233 61.8756 88.2337 61.6703 87.889V91.86H60.6693V82.972H61.6703V84.083ZM65.7623 85.964C65.7623 85.5093 65.6706 85.1133 65.4873 84.776C65.3039 84.4387 65.0546 84.182 64.7393 84.006C64.4313 83.83 64.0903 83.742 63.7163 83.742C63.3496 83.742 63.0086 83.8337 62.6933 84.017C62.3853 84.193 62.1359 84.4533 61.9453 84.798C61.7619 85.1353 61.6703 85.5277 61.6703 85.975C61.6703 86.4297 61.7619 86.8293 61.9453 87.174C62.1359 87.5113 62.3853 87.7717 62.6933 87.955C63.0086 88.131 63.3496 88.219 63.7163 88.219C64.0903 88.219 64.4313 88.131 64.7393 87.955C65.0546 87.7717 65.3039 87.5113 65.4873 87.174C65.6706 86.8293 65.7623 86.426 65.7623 85.964Z" fill="#3C3C43" fill-opacity="0.6"/>
<defs>
<filter id="filter0_d_3579_31979" x="0" y="0" width="94" height="93.9551" filterUnits="userSpaceOnUse" color-interpolation-filters="sRGB">
<feFlood flood-opacity="0" result="BackgroundImageFix"/>
<feColorMatrix in="SourceAlpha" type="matrix" values="0 0 0 0 0 0 0 0 0 0 0 0 0 0 0 0 0 0 127 0" result="hardAlpha"/>
<feOffset dx="8" dy="8"/>
<feGaussianBlur stdDeviation="12"/>
<feComposite in2="hardAlpha" operator="out"/>
<feColorMatrix type="matrix" values="0 0 0 0 0.320333 0 0 0 0 0.5 0 0 0 0 0.316667 0 0 0 0.25 0"/>
<feBlend mode="normal" in2="BackgroundImageFix" result="effect1_dropShadow_3579_31979"/>
<feBlend mode="normal" in="SourceGraphic" in2="effect1_dropShadow_3579_31979" result="shape"/>
</filter>
</defs>
</svg>
